<?xml version="1.0" standalone="no"?>
<!DOCTYPE svg PUBLIC "-//W3C//DTD SVG 20010904//EN"
 "http://www.w3.org/TR/2001/REC-SVG-20010904/DTD/svg10.dtd">
<svg version="1.0" xmlns="http://www.w3.org/2000/svg"
 width="1178.000000pt" height="1280.000000pt" viewBox="0 0 1178.000000 1280.000000"
 preserveAspectRatio="xMidYMid meet">
<g transform="translate(0.000000,1280.000000) scale(0.100000,-0.100000)"
>
<path d="M5074 12584 c-120 -145 -346 -473 -446 -649 -230 -405 -356 -789
-413 -1259 -9 -71 -18 -133 -20 -137 -3 -3 -14 -9 -25 -12 -45 -12 -86 94
-101 258 -4 55 -24 177 -44 272 -29 140 -42 182 -70 229 -19 31 -37 77 -41
102 -11 76 4 200 41 342 84 316 175 683 175 703 -1 25 8 34 -106 -104 -34 -41
-114 -132 -179 -204 -64 -71 -147 -168 -183 -215 -36 -47 -82 -102 -103 -122
-21 -21 -59 -81 -87 -140 -171 -351 -148 -776 77 -1427 74 -213 107 -291 126
-291 14 0 171 202 229 297 53 84 99 174 115 224 9 29 17 37 36 37 29 0 31 -5
68 -203 32 -169 68 -613 56 -688 -17 -107 -99 -350 -191 -567 -22 -52 -108
-234 -190 -405 -182 -376 -226 -477 -289 -665 -77 -232 -119 -478 -119 -703 0
-55 -3 -98 -6 -94 -15 15 -57 390 -75 667 -17 277 -1 538 50 768 23 104 20
136 -34 451 -84 480 -231 779 -518 1046 -85 79 -173 142 -185 131 -2 -3 12
-76 31 -163 35 -155 83 -428 113 -641 21 -154 30 -532 15 -661 -29 -244 -101
-427 -218 -549 -37 -40 -97 -89 -133 -110 l-65 -38 -92 -175 c-261 -491 -389
-890 -433 -1344 -6 -66 -18 -147 -25 -180 -7 -33 -16 -89 -20 -125 -4 -36 -20
-130 -35 -210 -41 -205 -53 -329 -53 -535 0 -245 33 -485 93 -677 17 -54 17
-62 4 -76 -14 -13 -19 -13 -52 2 -59 28 -192 119 -257 177 -40 35 -61 48 -63
38 -3 -17 106 -318 184 -508 71 -171 260 -561 343 -706 94 -163 277 -434 386
-570 632 -792 1485 -1220 2590 -1300 52 -4 143 -21 215 -41 297 -81 524 -114
835 -121 499 -11 876 69 1318 279 192 90 314 138 355 138 70 0 314 32 457 61
477 94 864 268 1220 547 101 79 359 341 447 452 270 344 500 772 683 1273 31
87 55 161 51 164 -3 4 -21 -7 -39 -23 -62 -58 -194 -144 -246 -159 -22 -7 -23
-5 -18 26 2 19 16 78 30 131 72 269 76 658 11 938 -25 106 -42 216 -59 375
-40 383 -123 656 -310 1030 l-111 220 -64 42 c-322 209 -380 725 -179 1597 17
70 28 133 27 138 -5 14 -144 -99 -212 -173 -208 -224 -311 -476 -377 -921
l-21 -146 21 -106 c32 -159 44 -338 37 -541 -6 -176 -33 -461 -58 -600 l-12
-70 -7 150 c-12 239 -44 406 -118 614 -21 59 -42 128 -46 152 -9 51 -45 129
-71 150 -20 16 -192 367 -264 539 -64 153 -126 333 -144 422 -12 57 -13 98 -6
188 26 323 74 590 107 590 4 0 34 -53 65 -118 53 -107 133 -229 215 -327 l32
-39 22 50 c37 82 117 328 149 457 87 355 90 598 10 818 -53 147 -128 254 -340
489 -62 69 -133 152 -159 184 -35 45 -47 54 -49 40 -2 -18 28 -143 128 -529
50 -193 59 -283 36 -350 -9 -27 -23 -56 -32 -66 -23 -26 -73 -265 -84 -402 -9
-124 -33 -194 -75 -223 -27 -19 -30 -11 -50 156 -47 392 -164 730 -378 1085
-87 146 -330 485 -346 485 -4 0 -13 -87 -19 -192 -15 -231 -42 -417 -87 -593
-56 -220 -121 -373 -147 -347 -4 4 -19 42 -32 83 -43 133 -154 450 -160 456
-10 10 -27 -98 -61 -385 -39 -332 -59 -396 -143 -456 -48 -34 -153 -175 -206
-276 -62 -119 -69 -153 -72 -385 -1 -121 -7 -222 -14 -239 -6 -16 -20 -94 -31
-175 -19 -130 -20 -170 -14 -371 14 -394 14 -381 -18 -424 -20 -26 -35 -36
-50 -34 -23 3 -56 53 -84 128 -9 25 -24 56 -33 70 -15 22 -27 68 -62 229 -5
24 -26 78 -47 120 -22 42 -42 89 -46 105 -7 31 -5 42 49 331 38 197 62 383 71
545 11 202 -27 516 -85 700 -11 36 -20 83 -20 105 -1 189 -72 322 -311 585
-278 307 -384 453 -500 695 -168 347 -251 715 -282 1256 l-12 203 -41 -50z"/>
</g>
</svg>
