<?xml version="1.0" standalone="no"?>
<!DOCTYPE svg PUBLIC "-//W3C//DTD SVG 20010904//EN"
 "http://www.w3.org/TR/2001/REC-SVG-20010904/DTD/svg10.dtd">
<svg version="1.0" xmlns="http://www.w3.org/2000/svg"
 width="895.000000pt" height="1280.000000pt" viewBox="0 0 895.000000 1280.000000"
 preserveAspectRatio="xMidYMid meet">
<g transform="translate(0.000000,1280.000000) scale(0.100000,-0.100000)" >
<path d="M4151 12724 c-286 -318 -443 -730 -467 -1224 -16 -321 28 -635 177
-1285 76 -330 99 -464 99 -578 0 -138 -26 -205 -99 -254 -59 -40 -68 -34 -158
90 -237 327 -548 633 -809 795 -239 148 -436 211 -661 212 -68 0 -123 -3 -123
-6 0 -3 33 -51 73 -107 668 -935 900 -1890 642 -2648 -38 -113 -113 -271 -131
-276 -6 -2 -43 34 -82 79 -90 107 -313 324 -422 411 -256 206 -594 389 -873
473 -220 66 -446 73 -411 12 5 -9 43 -42 84 -75 366 -291 600 -778 685 -1427
40 -306 44 -732 10 -1066 -17 -165 -21 -190 -35 -190 -5 0 -75 49 -155 108
-308 229 -585 376 -840 448 -110 31 -308 43 -398 25 -68 -15 -184 -70 -216
-104 l-22 -25 103 -57 c254 -142 484 -330 611 -500 76 -102 148 -252 183 -380
22 -85 27 -127 31 -275 6 -199 -5 -319 -62 -666 -78 -480 -97 -736 -76 -1059
36 -567 158 -1039 382 -1486 222 -444 575 -873 936 -1137 50 -37 90 -71 89
-77 -2 -6 -109 -11 -289 -13 l-287 -2 0 -230 0 -230 2845 0 2845 0 0 230 0
230 -332 2 c-348 3 -385 8 -294 43 144 55 501 270 719 433 199 149 295 231
448 384 545 545 893 1215 1017 1958 71 424 74 532 26 1050 -36 391 -116 724
-225 942 -42 86 -100 178 -111 178 -3 0 -16 -30 -28 -68 -60 -181 -171 -327
-299 -390 -35 -18 -70 -32 -77 -32 -29 0 -44 31 -44 95 0 87 20 185 105 520
157 619 180 753 172 975 -18 453 -170 831 -455 1131 -83 87 -240 219 -261 219
-4 0 -5 -109 -3 -242 3 -185 1 -274 -12 -373 -47 -386 -177 -669 -379 -833
-76 -61 -106 -77 -119 -64 -19 19 -28 199 -28 583 0 694 -34 1120 -122 1537
-154 734 -471 1264 -931 1555 -112 72 -340 177 -382 177 -10 0 0 -30 35 -104
111 -240 226 -553 271 -743 53 -224 61 -366 34 -605 -18 -155 -34 -258 -41
-270 -11 -18 -23 -6 -29 30 -14 83 -67 290 -96 376 -161 469 -457 969 -846
1429 -142 169 -206 260 -275 393 -214 414 -392 1028 -523 1804 -19 118 -37
219 -38 224 -2 5 -27 -18 -56 -50z m1388 -7272 c28 -55 48 -131 68 -262 15
-95 18 -178 18 -485 -1 -431 -20 -720 -87 -1263 -11 -95 -17 -176 -14 -180 4
-3 40 10 79 31 223 115 454 358 817 858 82 113 159 214 171 225 21 19 21 19
39 -3 57 -71 24 -435 -71 -785 -78 -290 -222 -590 -363 -758 -21 -24 -33 -46
-27 -48 15 -5 98 23 191 63 208 90 410 247 564 438 21 26 42 47 47 47 37 0
-51 -342 -158 -615 -263 -670 -753 -1244 -1386 -1623 -297 -178 -570 -297
-974 -423 -195 -60 -199 -61 -289 -56 -270 15 -687 249 -999 562 -373 372
-586 774 -676 1275 -21 116 -18 537 4 665 27 152 71 319 122 461 58 162 210
477 227 472 7 -3 28 -74 48 -159 183 -781 463 -1364 783 -1629 80 -66 211
-137 271 -147 34 -5 38 -4 32 13 -25 81 -103 388 -131 519 -161 751 -166 1309
-15 1610 68 137 95 153 119 74 7 -24 36 -100 63 -169 131 -330 297 -571 474
-689 76 -51 170 -88 197 -78 8 3 17 25 21 50 10 66 99 426 145 584 90 310 209
638 323 885 115 252 306 578 338 578 5 0 18 -17 29 -38z"/>
</g>
</svg>
