<svg version="1.2" xmlns="http://www.w3.org/2000/svg" viewBox="0 0 1280 1280" width="1280" height="1280">
	<title>1084875-svg</title>
	<style>
		.s0 { fill: #00aaff }
	</style>
	<g id="Layer">
		<path id="Layer" class="s0" d="m901.2 601.4c0.8 1.6 0.8 6-0.1 11.7c-0.7 4.3-0.8 4.6-3.4 7.4c-4.8 5.1-7.9 10.4-10.2 17.3c-1.3 3.6-3.2 12.5-3.6 16.4c-0.1 1.8-0.1 1.8 2.3 2.2c7.1 1.4 17.7 4.4 21.1 6c6.6 3.2 10.8 7.8 13.3 14.5c2 5.2 2 14.4 0 21.9c-2.1 8.6-6.5 18.6-9.4 21.9c-2.1 2.4-3.6 5.6-4.9 10c-1.6 5.7-1.9 24.2-0.5 34c1.3 9.6 1.2 20.3-0.3 27.1c-4.8 22.2-16.9 34.5-37.2 38.2c-14.1 2.5-39.2-1.1-47.9-6.9c-8.8-5.9-20.6-17.4-25.6-25c-5.5-8.4-8.2-14.8-10.3-24.4c-1.3-5.6-1.4-7-1.1-15.5c0.3-12.2 1.7-18.9 6.7-31.5c10.3-26.1 33.8-52.4 56.2-63.1l4.6-2.2l1.2-3.8c4.8-14.9 21.2-36.5 39.6-52.3c6.3-5.5 8.2-6.2 9.5-3.9z" />
		<path id="Layer" class="s0" d="m1047.8 645.1c1.1 1.2 3.6 10.7 5.3 20.5c3.4 19 3.4 41.1-0.1 52.6l-0.7 2.5l2.6 4.2c7.8 12.5 12.8 28 15.2 47.2c1 8.5 0.8 26-0.6 34c-5.2 32-21.5 53.4-47.7 62.8c-7.6 2.7-14.9 4.2-25.5 5.2c-6.8 0.6-7.2 0.6-11.5-0.6c-24-6.7-41.5-18.9-48.5-33.7c-5-10.9-4.9-23.7 0.3-37.6c2.6-6.8 6.7-14.1 10.7-18.6c8.2-9.4 14.9-19.2 18.9-27.6c2.8-6 4.6-12.9 4-15.6c-0.6-2.3-0.4-7.2 0.6-12.8c2.9-18.1 10.6-30.3 21.7-34.4c4.6-1.7 12.6-1.6 18.3 0.2c7.3 2.2 15.4 5.1 16.1 5.6c0.8 0.7 1.5-0.3 4.6-7c1.4-2.7 3.2-7.6 4-10.8c1.5-5 1.7-6.8 1.7-12.1c0-3.4-0.3-7.1-0.6-8.2c-0.5-1.8-0.3-2.4 1.8-7c1.3-2.7 3.4-6.1 4.7-7.4c2.5-2.8 3.2-3 4.7-1.4z" />
		<path id="Layer" class="s0" d="m662.6 727.5c0.8 2.1 2.1 9.6 2.1 12.1c0 1-0.5 3-1.2 4.2c-4 7.1-5.5 16.1-4.6 25.8c0.3 3.3 0.7 6.1 0.8 6.3c0.1 0.2 1 0.1 2-0.1c2.8-0.9 12.1-1.2 15.5-0.6c9.6 1.8 18.5 10 24.4 22.6c2.8 6.1 4 9.7 5.9 17.7c0.8 3.7 1.9 7.5 2.3 8.5c0.4 1 1.2 2.9 1.8 4.4c3.3 8.1 13.2 30.2 17.5 39.2c8.7 18 11 25.7 11.1 36.5c0 7.8-1.3 13.3-4.6 19.6c-7.7 14.4-24.3 25-48.6 30.8c-5.7 1.4-6.9 1.4-15.3 0c-19.9-3.2-34.6-10.1-45.8-21.4c-13.6-13.9-20.9-33.4-21.8-58.3c-1-28.6 9-60.9 24.4-78.2c1.7-1.9 2.1-2.8 2.1-4.5c0-7.2 3.2-20.2 7.7-31.8c4-10.2 13.7-28.5 18.2-34.5c2.2-2.8 4.6-2.1 6.1 1.7z" />
		<path id="Layer" class="s0" d="m1183.3 890.5c1.4 2.8-0.1 27.5-2.6 40.1c-2.4 12.2-6.2 23.8-10.1 30.6c-2 3.5-2.1 3.8-2.1 8.3c0 8.7-2.1 19.9-5.7 30.7c-12.3 37.1-36.5 63.7-64.5 71c-6.3 1.6-10.3 1.9-18.7 1.7c-12.5-0.5-22.9-3.1-35.7-9.2c-5.6-2.6-6.2-3.1-11.6-8.7c-24.5-25.4-29.8-51.5-14.6-72c5.4-7.4 12.1-12.8 28.6-23.1c17.5-10.8 42.6-28.2 42.6-29.3c0-0.3 2.4-2.6 5.3-5.1c13.7-12.2 27.2-17.9 38.2-16.3c6.4 1 11.2 3.5 16.9 9c2.6 2.4 5.6 5.6 6.7 7.1c1 1.4 2 2.6 2.2 2.6c0.8 0 5.2-7.3 6.9-11.4c1.8-4 3.3-10.5 3.4-14.2c0-1.5 0.6-2.7 3.3-5.9c1.8-2.2 4.4-4.7 5.7-5.8c2.7-2 4.7-2.1 5.8-0.1z" />
		<path id="Layer" class="s0" d="m866.2 949.4c2.6 1 6.5 2.1 8.5 2.5c12.2 2.1 27.4 7.7 38.5 14.2c9.5 5.5 21 16 26.3 23.9c5.5 8.4 9.3 18 11 28.3c1.7 9.8 1 24.8-1.7 36.2c-0.8 3.4-0.8 3.8 0.3 9.2c4.5 21.9 17.4 40.3 35.9 51.2c5.4 3.2 9.7 9.2 12.5 17.6c1.4 4 1.5 4.9 1.5 13.9c0 10.4-0.6 13.4-4.1 22.9c-2.4 6.2-10.8 22.3-14.2 27.2c-3.8 5.5-13 14.8-18.6 18.7c-10.7 7.4-21 11.6-35.6 14.5c-6.4 1.3-7.7 1.4-16 1.1c-12.8-0.5-33.4-2.7-49.7-5.5c-20.6-3.5-35.2-6.8-55.5-12.5c-2-0.6-5.3-1.5-7.4-2.1c-22.3-5.9-38.7-11.5-58.7-19.8c-22.4-9.3-49.1-22.6-56.8-28.4c-4.2-3.1-13.2-12.3-16.9-17.2c-10.2-13.4-15.6-27.5-16.8-42.7c-0.7-9.4 1-27.3 3.5-37.2c3.5-13.7 11.6-25.8 21.4-31.7c6.2-3.6 9.3-4.5 15.3-4.5c21.3 0.3 41.7-8 56.7-23.2c4.7-4.7 4.6-4.6 7.7-12.5c7.9-20.2 21-35.5 37.4-43.7c8-4 16.2-6.3 28-7.7c11.7-1.4 32.1 1.8 47.5 7.3z" />
	</g>
	<g id="Layer copy 6">
		<path id="Layer" class="s0" d="m381.2 87.4c0.8 1.6 0.8 6-0.1 11.7c-0.7 4.3-0.8 4.6-3.4 7.4c-4.8 5.1-7.9 10.4-10.2 17.3c-1.3 3.6-3.2 12.5-3.6 16.4c-0.1 1.8-0.1 1.8 2.3 2.2c7.1 1.4 17.7 4.4 21.1 6c6.6 3.2 10.8 7.8 13.3 14.5c2 5.2 2 14.4 0 21.9c-2.1 8.6-6.5 18.6-9.4 21.9c-2.1 2.4-3.6 5.6-4.9 10c-1.6 5.7-1.9 24.2-0.5 34c1.3 9.6 1.2 20.3-0.3 27.1c-4.8 22.2-16.9 34.5-37.2 38.2c-14.1 2.5-39.2-1.1-47.9-6.9c-8.8-5.9-20.6-17.4-25.6-25c-5.5-8.4-8.2-14.8-10.3-24.4c-1.3-5.6-1.4-7-1.1-15.5c0.3-12.2 1.7-18.9 6.7-31.5c10.3-26.1 33.8-52.4 56.2-63.1l4.6-2.2l1.2-3.8c4.8-14.9 21.2-36.5 39.6-52.3c6.3-5.5 8.2-6.2 9.5-3.9z" />
		<path id="Layer" class="s0" d="m527.8 131.1c1.1 1.2 3.6 10.7 5.3 20.5c3.4 19 3.4 41.1-0.1 52.6l-0.7 2.5l2.6 4.2c7.8 12.5 12.8 28 15.2 47.2c1 8.5 0.8 26-0.6 34c-5.2 32-21.5 53.4-47.7 62.8c-7.6 2.7-14.9 4.2-25.5 5.2c-6.8 0.6-7.2 0.6-11.5-0.6c-24-6.7-41.5-18.9-48.5-33.7c-5-10.9-4.9-23.7 0.3-37.6c2.6-6.8 6.7-14.1 10.7-18.6c8.2-9.4 14.9-19.2 18.9-27.6c2.8-6 4.6-12.9 4-15.6c-0.6-2.3-0.4-7.2 0.6-12.8c2.9-18.1 10.6-30.3 21.7-34.4c4.6-1.7 12.6-1.6 18.3 0.2c7.3 2.2 15.4 5.1 16.1 5.6c0.8 0.7 1.5-0.3 4.6-7c1.4-2.7 3.2-7.6 4-10.8c1.5-5 1.7-6.8 1.7-12.1c0-3.4-0.3-7.1-0.6-8.2c-0.5-1.8-0.3-2.4 1.8-7c1.3-2.7 3.4-6.1 4.7-7.4c2.5-2.8 3.2-3 4.7-1.4z" />
		<path id="Layer" class="s0" d="m142.6 213.5c0.8 2.1 2.1 9.6 2.1 12.1c0 1-0.5 3-1.2 4.2c-4 7.1-5.5 16.1-4.6 25.8c0.3 3.3 0.7 6.1 0.8 6.3c0.1 0.2 1 0.1 2-0.1c2.8-0.9 12.1-1.2 15.5-0.6c9.6 1.8 18.5 10 24.4 22.6c2.8 6.1 4 9.7 5.9 17.7c0.8 3.7 1.9 7.5 2.3 8.5c0.4 1 1.2 2.9 1.8 4.4c3.3 8.1 13.2 30.2 17.5 39.2c8.7 18 11 25.7 11.1 36.5c0 7.8-1.3 13.3-4.6 19.6c-7.7 14.4-24.3 25-48.6 30.8c-5.7 1.4-6.9 1.4-15.3 0c-19.9-3.2-34.6-10.1-45.8-21.4c-13.6-13.9-20.9-33.4-21.8-58.3c-1-28.6 9-60.9 24.4-78.2c1.7-1.9 2.1-2.8 2.1-4.5c0-7.2 3.2-20.2 7.7-31.8c4-10.2 13.7-28.5 18.2-34.5c2.2-2.8 4.6-2.1 6.1 1.7z" />
		<path id="Layer" class="s0" d="m663.3 376.5c1.4 2.8-0.1 27.5-2.6 40.1c-2.4 12.2-6.2 23.8-10.1 30.6c-2 3.5-2.1 3.8-2.1 8.3c0 8.7-2.1 19.9-5.7 30.7c-12.3 37.1-36.5 63.7-64.5 71c-6.3 1.6-10.3 1.9-18.7 1.7c-12.5-0.5-22.9-3.1-35.7-9.2c-5.6-2.6-6.2-3.1-11.6-8.7c-24.5-25.4-29.8-51.5-14.6-72c5.4-7.4 12.1-12.8 28.6-23.1c17.5-10.8 42.6-28.2 42.6-29.3c0-0.3 2.4-2.6 5.3-5.1c13.7-12.2 27.2-17.9 38.2-16.3c6.4 1 11.2 3.5 16.9 9c2.6 2.4 5.6 5.6 6.7 7.1c1 1.4 2 2.6 2.2 2.6c0.8 0 5.2-7.3 6.9-11.4c1.8-4 3.3-10.5 3.4-14.2c0-1.5 0.6-2.7 3.3-5.9c1.8-2.2 4.4-4.7 5.7-5.8c2.7-2 4.7-2.1 5.8-0.1z" />
		<path id="Layer" class="s0" d="m346.2 435.4c2.6 1 6.5 2.1 8.5 2.5c12.2 2.1 27.4 7.7 38.5 14.2c9.5 5.5 21 16 26.3 23.9c5.5 8.4 9.3 18 11 28.3c1.7 9.8 1 24.8-1.7 36.2c-0.8 3.4-0.8 3.8 0.3 9.2c4.5 21.9 17.4 40.3 35.9 51.2c5.4 3.2 9.7 9.2 12.5 17.6c1.4 4 1.5 4.9 1.5 13.9c0 10.4-0.6 13.4-4.1 22.9c-2.4 6.2-10.8 22.3-14.2 27.2c-3.8 5.5-13 14.8-18.6 18.7c-10.7 7.4-21 11.6-35.6 14.5c-6.4 1.3-7.7 1.4-16 1.1c-12.8-0.5-33.4-2.7-49.7-5.5c-20.6-3.5-35.2-6.8-55.5-12.5c-2-0.6-5.3-1.5-7.4-2.1c-22.3-5.9-38.7-11.5-58.7-19.8c-22.4-9.3-49.1-22.6-56.8-28.4c-4.2-3.1-13.2-12.3-16.9-17.2c-10.2-13.4-15.6-27.5-16.8-42.7c-0.7-9.4 1-27.3 3.5-37.2c3.5-13.7 11.6-25.8 21.4-31.7c6.2-3.6 9.3-4.5 15.3-4.5c21.3 0.3 41.7-8 56.7-23.2c4.7-4.7 4.6-4.6 7.7-12.5c7.9-20.2 21-35.5 37.4-43.7c8-4 16.2-6.3 28-7.7c11.7-1.4 32.1 1.8 47.5 7.3z" />
	</g>
</svg>
