<svg version="1.2" xmlns="http://www.w3.org/2000/svg" viewBox="0 0 1280 720" width="1280" height="720"><style></style><path fill="#ffffff" aria-label="Dragons"  d="m209.98 475c72.37-19.6 124.63-89.2 137.59-160.4c13.03-71.6-18.31-106-89.91-106c-32 0-71.13-0.4-100.22-3.2c-25.71 11.6-70.73 52.4-75.47 78.4c-1.16 6.4 2.22 12 8.55 12.4c7.64-6.8 15.05-12.4 23.05-16.8l0.91-2.8c-2.87-4-2.1-10.4-1.16-15.6c0.8-4.4 3.42-14.4 6.15-18.4c13.17-10.8 39.46-12.4 59.13-12.8c-1.53 17.2-7.24 59.6-16.27 109.2c-8.52 46.8-18.42 96.8-34.49 136.8l8.03 2c3.09-6 8.88-13.6 12.48-18c18.07 8.4 40.43 15.2 61.63 15.2zm37.86-247.6c66 0 71.34 47.6 59.33 113.6c-5.9 32.4-16.3 63.2-37.07 91.6c-12.08 9.2-28.08 13.6-41.68 13.6c-15.6 0-38.07-4-50.76-11.2c3.5-28 9.79-64.8 15.47-96c12.66-69.6 15.43-80.4 23.54-109.6c10.29-1.6 20.77-2 31.17-2zm-48.41 247.6c72.37-19.6 124.64-89.2 137.59-160.4c13.03-71.6-18.31-106-89.91-106c-32 0-71.13-0.4-100.22-3.2c-25.71 11.6-70.73 52.4-75.46 78.4c-1.17 6.4 2.21 12 8.54 12.4c7.64-6.8 15.06-12.4 23.06-16.8l0.91-2.8c-2.87-4-2.11-10.4-1.16-15.6c0.8-4.4 3.42-14.4 6.14-18.4c13.17-10.8 39.46-12.4 59.13-12.8c-1.53 17.2-7.24 59.6-16.27 109.2c-8.51 46.8-18.41 96.8-34.49 136.8l8.04 2c3.09-6 8.87-13.6 12.47-18c18.07 8.4 40.43 15.2 61.63 15.2zm37.86-247.6c66 0 71.34 47.6 59.33 113.6c-5.9 32.4-16.3 63.2-37.07 91.6c-12.07 9.2-28.07 13.6-41.67 13.6c-15.6 0-38.08-4-50.77-11.2c3.5-28 9.8-64.8 15.47-96c12.67-69.6 15.43-80.4 23.55-109.6c10.29-1.6 20.76-2 31.16-2zm138.07 233.8c-6.81 0.67-18.54 2.67-25.29 4.23l-0.31 5.35c10.46-1.11 24.85-1.78 35.11-1.78c8.91 0 23.1 0.45 31.77 1.78l1.91-5.57c-4.62-1.56-15.55-4.01-20.55-4.68c0.26-7.58 4.28-37.01 9.19-63.98c6.69-36.78 8.8-45.92 12.86-60.86c3.42-0.44 9.7-0.67 13.05-0.67c20.51 0 31.59 4.02 27.78 24.97c-3.81 20.96-18.16 31.21-39.12 31.21h-2.67l-1.57 4.9c4.46 0 8.43 0.23 12.73 1.12c10.47 29.42 12.44 46.81 10.61 56.84c-1.22 6.69-3.73 10.7-6.1 12.71l0.32 3.12c5.25-0.67 12.2-0.89 19.34-0.89c11.14 0 23.06 0.67 31.1 1.78l1.91-5.57c-4.62-1.56-15.54-4.01-20.55-4.68l-19.2-65.99c18.6-6.68 31.39-19.39 34.76-37.89c4.99-27.42-13.43-32.77-40.4-32.77c-16.5 0-38.31-0.23-54.52-1.79c-14.33 6.47-39.42 29.21-42.06 43.7c-0.65 3.56 1.24 6.68 4.77 6.91c4.25-3.79 8.39-6.91 12.85-9.37l0.5-1.56c-1.6-2.23-1.17-5.79-0.65-8.69c0.45-2.45 1.91-8.03 3.43-10.25c7.07-5.8 21.54-6.92 32.51-7.14c-0.85 9.59-3.82 33.22-8.85 60.86c-4.9 26.97-12.04 56.4-14.66 64.65zm-5.88 0c-6.81 0.67-18.54 2.67-25.29 4.23l-0.3 5.35c10.45-1.11 24.84-1.78 35.1-1.78c8.91 0 23.1 0.45 31.77 1.78l1.91-5.57c-4.62-1.56-15.54-4.01-20.55-4.68c0.27-7.58 4.28-37.01 9.19-63.98c6.69-36.78 8.8-45.92 12.86-60.86c3.42-0.44 9.71-0.67 13.05-0.67c20.51 0 31.59 4.02 27.78 24.97c-3.81 20.96-18.16 31.21-39.12 31.21h-2.67l-1.56 4.9c4.45 0 8.43 0.23 12.72 1.12c10.48 29.42 12.44 46.81 10.61 56.84c-1.21 6.69-3.73 10.7-6.1 12.71l0.33 3.12c5.24-0.67 12.2-0.89 19.33-0.89c11.15 0 23.06 0.67 31.11 1.78l1.9-5.57c-4.62-1.56-15.54-4.01-20.55-4.68l-19.2-65.99c18.61-6.68 31.4-19.39 34.76-37.89c4.99-27.42-13.43-32.77-40.4-32.77c-16.5 0-38.3-0.23-54.52-1.79c-14.32 6.47-39.42 29.21-42.05 43.7c-0.65 3.56 1.23 6.68 4.76 6.91c4.25-3.79 8.39-6.91 12.85-9.37l0.5-1.56c-1.6-2.23-1.17-5.79-0.64-8.69c0.44-2.45 1.9-8.03 3.42-10.25c7.08-5.8 21.55-6.92 32.51-7.14c-0.85 9.59-3.81 33.22-8.84 60.86c-4.91 26.97-12.05 56.4-14.67 64.65zm182.94-140.67c-15.42 5.13-43.15 30.1-45.91 45.26c-0.64 3.56 1.24 6.68 4.77 6.91c4.25-3.79 8.39-6.91 12.85-9.37l0.5-1.56c-1.6-2.23-1.17-5.79-0.64-8.69c0.44-2.45 1.9-8.03 3.42-10.25c7.87-6.47 23.81-7.14 34.96-7.14l-57.94 124.84c-5.25 0.67-17.06 3.12-22.25 4.68l-0.12 5.57c8.45-1.11 20.61-1.78 31.75-1.78c7.14 0 16.24 0.22 21.24 0.89l1.46-3.12c-6.99-4.46-7.47-11.59-5.89-20.29c1.54-8.47 7.54-24.29 11.43-33.43c8.23-1.12 18.53-1.34 26.55-1.34c7.8 0 14.86 0.44 22.5 1.34c-4.14 20.28-8.83 39.9-11.1 47.48c-5.25 0.67-17.06 3.12-22.25 4.68l-0.12 5.57c9.16-1.33 23.51-1.78 32.42-1.78c10.26 0 24.4 0.67 34.46 1.78l1.64-5.35c-6.18-1.56-17.19-3.56-23.75-4.23c0.38-8.25 3.87-37.23 7.69-58.19c8.92-49.04 12.83-64.42 20.8-84.93l-4.44-1.34c-1.72 3.35-4.5 7.58-6.99 10.26c-23.53-1.79-44.34-3.79-67.04-6.47zm17.68 82.93c-7.13 0-16.64-0.45-23.57-1.56c0 0 2.31-5.35 6.25-14.71l21.85-51.5c7.14 0 17.17 0 28.56 1.12l0.54 0.67c-2.05 14.93-4.32 29.87-10.61 64.42c-8.04 1.34-15.22 1.56-23.02 1.56zm-23.55-82.93c-15.43 5.13-43.16 30.1-45.91 45.26c-0.65 3.56 1.23 6.68 4.76 6.91c4.25-3.79 8.39-6.91 12.85-9.37l0.5-1.56c-1.6-2.23-1.17-5.79-0.64-8.69c0.44-2.45 1.9-8.03 3.42-10.25c7.87-6.47 23.82-7.14 34.96-7.14l-57.94 124.84c-5.24 0.67-17.06 3.12-22.25 4.68l-0.12 5.57c8.45-1.11 20.61-1.78 31.76-1.78c7.13 0 16.23 0.22 21.23 0.89l1.46-3.12c-6.99-4.46-7.47-11.59-5.89-20.29c1.54-8.47 7.54-24.29 11.44-33.43c8.22-1.12 18.52-1.34 26.54-1.34c7.81 0 14.86 0.44 22.5 1.34c-4.14 20.28-8.82 39.9-11.09 47.48c-5.25 0.67-17.07 3.12-22.26 4.68l-0.12 5.57c9.16-1.33 23.51-1.78 32.43-1.78c10.25 0 24.4 0.67 34.45 1.78l1.64-5.35c-6.18-1.56-17.18-3.56-23.75-4.23c0.39-8.25 3.88-37.23 7.69-58.19c8.92-49.04 12.84-64.42 20.8-84.93l-4.43-1.34c-1.73 3.35-4.5 7.58-7 10.26c-23.53-1.79-44.34-3.79-67.03-6.47zm17.67 82.93c-7.13 0-16.63-0.45-23.56-1.56c0 0 2.31-5.35 6.24-14.71l21.85-51.5c7.14 0 17.17 0 28.56 1.12l0.55 0.67c-2.05 14.93-4.33 29.87-10.61 64.42c-8.05 1.34-15.22 1.56-23.03 1.56zm144.31 50.83c-31.21 0-33.4-29.65-27.72-60.86c2.92-16.05 9.23-34.78 20.34-49.27c7.96-5.79 16.09-7.58 25.01-7.58c7.8 0 19.03 2.01 25.25 5.8c-1.1 6.02-2.01 14.71-1.77 20.73h5.57c2.96-11.37 6.72-20.95 13.08-31.43c3.59-1.34 7.5-2.01 11.07-2.01l1.11-4.9c-13.15-2.45-32-4.24-45.82-4.24c-39.8 10.48-69.46 49.72-76.68 89.4c-6.69 36.78 5.59 62.41 42.37 62.41c10.19-3.34 20.71-8.47 29.87-14.71c-2.15 11.82-7.56 30.54-16.44 40.13c-2.21 1.11-4.92 1.33-7.38 1.33c-4.68 0-9.2-0.89-12.46-3.79l-1.6 0.23c-3.36 3.79-8.41 8.25-12.99 11.37c-0.77 4.23 2.35 6.68 6.58 6.68c17.17 0 43.76-18.72 54.5-33.66c4.77-24.96 10.43-47.48 17.64-72.45c2.8-3.12 5.92-5.57 9.49-8.02l-1.28-4.01c-13.01 7.8-24.72 10.92-37.87 10.92c-3.12 0-6.43-0.22-9.69-0.67l-1.52 4.68c6.26 1.12 13.78 2.68 19.47 4.46c-0.44 4.9-0.93 10.03-1.82 14.94l-3.33 18.28c-7.11 3.56-15.63 6.24-22.98 6.24zm-5.88 0c-31.21 0-33.39-29.65-27.71-60.86c2.92-16.05 9.22-34.78 20.33-49.27c7.97-5.79 16.09-7.58 25.01-7.58c7.8 0 19.03 2.01 25.25 5.8c-1.1 6.02-2.01 14.71-1.77 20.73h5.58c2.96-11.37 6.71-20.95 13.07-31.43c3.59-1.34 7.5-2.01 11.07-2.01l1.11-4.9c-13.15-2.45-32-4.24-45.82-4.24c-39.8 10.48-69.46 49.72-76.68 89.4c-6.69 36.78 5.59 62.41 42.37 62.41c10.19-3.34 20.71-8.47 29.87-14.71c-2.15 11.82-7.56 30.54-16.44 40.13c-2.21 1.11-4.92 1.33-7.37 1.33c-4.69 0-9.2-0.89-12.47-3.79l-1.6 0.23c-3.36 3.79-8.41 8.25-12.99 11.37c-0.77 4.23 2.35 6.68 6.59 6.68c17.16 0 43.75-18.72 54.49-33.66c4.77-24.96 10.43-47.48 17.65-72.45c2.79-3.12 5.92-5.57 9.48-8.02l-1.27-4.01c-13.02 7.8-24.73 10.92-37.88 10.92c-3.12 0-6.43-0.22-9.69-0.67l-1.52 4.68c6.26 1.12 13.78 2.68 19.48 4.46c-0.45 4.9-0.94 10.03-1.83 14.94l-3.33 18.28c-7.11 3.56-15.62 6.24-22.98 6.24zm166.97-133.76c-15.79 12.04-30.12 28.31-33.37 46.15c-1.13 6.24-0.81 14.27 5.43 14.27c0.67 0 1.34 0 1.83-0.23c2.33-4.23 6.12-9.14 9.67-12.7l-0.17-1.56c-4.05-2.23-4.78-12.93-3.88-17.84c3.97-7.13 12.22-12.04 19.8-12.04c23.85 0 27.23 31.66 21.47 63.31c-2.84 15.61-9.29 33.89-19.99 48.6c-6.73 5.13-16.13 7.8-23.49 7.8c-28.76 0-36.45-33.66-31.14-62.86c3.49-19.17 12.41-41.24 26.21-57.07l-2.35-1.78c-25.19 19.61-41.39 46.14-46.7 75.35c-6.69 36.78 11.38 62.41 46.38 62.41c39.6-14.26 66.74-49.49 74.04-89.61c7.06-38.79-6.74-62.2-43.74-62.2zm-5.88 0c-15.79 12.04-30.12 28.31-33.36 46.15c-1.14 6.24-0.82 14.27 5.43 14.27c0.66 0 1.33 0 1.82-0.23c2.33-4.23 6.12-9.14 9.67-12.7l-0.16-1.56c-4.06-2.23-4.78-12.93-3.89-17.84c3.97-7.13 12.22-12.04 19.8-12.04c23.85 0 27.23 31.66 21.47 63.31c-2.84 15.61-9.28 33.89-19.99 48.6c-6.73 5.13-16.13 7.8-23.49 7.8c-28.75 0-36.45-33.66-31.14-62.86c3.49-19.17 12.41-41.24 26.22-57.07l-2.35-1.78c-25.2 19.61-41.39 46.14-46.71 75.35c-6.69 36.78 11.38 62.41 46.38 62.41c39.6-14.26 66.74-49.49 74.05-89.61c7.05-38.79-6.74-62.2-43.75-62.2zm144.6 7.58l0.12-5.57c-4.85 0.89-10.05 1.34-14.96 1.34c-14.27 0-24.56-2.23-35.14-2.9c-15.42 5.13-43.15 30.09-45.91 45.25c-0.65 3.57 1.24 6.69 4.76 6.91c4.26-3.79 8.39-6.91 12.85-9.36l0.51-1.56c-1.6-2.23-1.17-5.8-0.65-8.69c0.45-2.46 1.91-8.03 3.43-10.26c7.86-6.46 23.81-7.13 34.96-7.13c-0.69 11.14-3.73 35.22-7.1 53.72l-2.4 13.15c-5.59 30.77-10.8 50.83-12.91 57.52c-5.25 0.67-17.07 3.12-22.26 4.68l-0.12 5.57c9.16-1.33 23.51-1.78 32.43-1.78c10.25 0 24.4 0.67 34.45 1.78l1.42-5.35c-5.96-1.56-16.96-3.56-23.53-4.23c-4.5-14.49 0.35-47.26 4.73-71.34l6.82-37.45l0.97-0.44c36.57 79.58 47.47 107.89 45.68 117.7c4.99-0.45 10.16-0.67 15.06-0.67c11.15 0 19.09 0.45 27.76 1.78l1.91-5.57c-5.29-1.56-14.55-3.34-20.67-4.01c0.04-7.58 3.88-37.23 7.69-58.19l2.39-13.15c5.6-30.76 11.38-51.49 13.49-58.18c6.81-0.67 16.13-2.9 22.88-4.46l0.26-5.13c-8.45 1.12-19.49 1.79-30.64 1.79c-7.13 0-15.79-0.23-20.79-0.89l-1.46 3.12c12.3 4.68 10.73 29.2 2.05 76.9l-5.84 32.11l-0.97 0.44c-34.52-74.9-41.61-92.29-41.75-100.09c0.52-2.9 4.01-4.91 10.48-7.36zm-5.88 0l0.12-5.57c-4.84 0.89-10.05 1.34-14.96 1.34c-14.26 0-24.56-2.23-35.14-2.9c-15.42 5.13-43.15 30.09-45.91 45.25c-0.64 3.57 1.24 6.69 4.77 6.91c4.25-3.79 8.39-6.91 12.85-9.36l0.5-1.56c-1.6-2.23-1.17-5.8-0.64-8.69c0.44-2.46 1.9-8.03 3.42-10.26c7.87-6.46 23.82-7.13 34.96-7.13c-0.69 11.14-3.73 35.22-7.1 53.72l-2.39 13.15c-5.6 30.77-10.81 50.83-12.92 57.52c-5.25 0.67-17.07 3.12-22.25 4.68l-0.13 5.57c9.16-1.33 23.51-1.78 32.43-1.78c10.25 0 24.4 0.67 34.45 1.78l1.42-5.35c-5.96-1.56-16.96-3.56-23.53-4.23c-4.49-14.49 0.35-47.26 4.74-71.34l6.81-37.45l0.97-0.44c36.57 79.58 47.47 107.89 45.68 117.7c4.99-0.45 10.16-0.67 15.06-0.67c11.15 0 19.09 0.45 27.77 1.78l1.9-5.57c-5.29-1.56-14.55-3.34-20.67-4.01c0.04-7.58 3.88-37.23 7.69-58.19l2.39-13.15c5.6-30.76 11.38-51.49 13.49-58.18c6.81-0.67 16.13-2.9 22.88-4.46l0.26-5.13c-8.45 1.12-19.49 1.79-30.64 1.79c-7.13 0-15.78-0.23-20.79-0.89l-1.46 3.12c12.3 4.68 10.74 29.2 2.06 76.9l-5.85 32.11l-0.97 0.44c-34.52-74.9-41.61-92.29-41.75-100.09c0.53-2.9 4.01-4.91 10.48-7.36zm85.07 150.92c10.74 9.59 26.42 14.05 41.74 15.61c30.16-11.37 52.24-35.89 57.67-65.77c5.15-28.31-54.32-50.6-49.94-74.68c2.07-11.36 16.8-17.61 28.39-17.61c7.14 0 15.99 1.56 21.71 4.46c-0.41 7.14-1.36 13.6-2.66 20.73h5.57c2.86-12.03 9.04-25.19 18.93-32.99l0.82-4.46c-11.56-2.67-22.94-3.79-35.65-3.79c-22.52 7.36-50.75 26.53-54.81 48.82c-4.74 26.09 54.35 51.72 49.97 75.8c-3.49 19.17-13.93 31.21-33.1 31.21c-15.16 0-39.6-10.26-36.84-25.42c0.44-2.45 1.34-4.9 2.86-7.13c3.69-3.12 12.16-8.03 17.29-8.03c0.89 0 1.74 0.23 2.14 0.45l1.5-0.89c1.38-5.13 3.39-10.03 6.13-14.05l-0.39-1.56c-1.58-1.11-3.06-1.56-4.62-1.56c-11.59 0-30.3 20.74-35.29 48.15c-0.69 3.79-1.3 9.59-1.42 12.71zm-5.88 0c10.74 9.59 26.43 14.05 41.75 15.61c30.15-11.37 52.23-35.89 57.66-65.77c5.15-28.31-54.32-50.6-49.94-74.68c2.07-11.36 16.8-17.61 28.39-17.61c7.14 0 15.99 1.56 21.71 4.46c-0.41 7.14-1.36 13.6-2.66 20.73h5.57c2.86-12.03 9.05-25.19 18.94-32.99l0.81-4.46c-11.55-2.67-22.94-3.79-35.65-3.79c-22.52 7.36-50.75 26.53-54.81 48.82c-4.74 26.09 54.35 51.72 49.97 75.8c-3.49 19.17-13.93 31.21-33.1 31.21c-15.16 0-39.6-10.26-36.84-25.42c0.45-2.45 1.34-4.9 2.86-7.13c3.69-3.12 12.16-8.03 17.29-8.03c0.89 0 1.74 0.23 2.15 0.45l1.5-0.89c1.37-5.13 3.38-10.03 6.12-14.05l-0.39-1.56c-1.58-1.11-3.06-1.56-4.62-1.56c-11.59 0-30.3 20.74-35.29 48.15c-0.69 3.79-1.3 9.59-1.42 12.71z" /></svg>