<svg id="Camada_1" data-name="Camada 1" xmlns="http://www.w3.org/2000/svg" xmlns:xlink="http://www.w3.org/1999/xlink" viewBox="0 0 427.2 512"><defs><style>.cls-1{fill:url(#Gradiente_sem_nome_38);}.cls-2{fill:url(#Gradiente_sem_nome_38-2);}</style><linearGradient id="Gradiente_sem_nome_38" x1="154.04" y1="48.7" x2="350.67" y2="197.93" gradientUnits="userSpaceOnUse"><stop offset="0" stop-color="#fba93d"/><stop offset="1" stop-color="#cd2e5a"/></linearGradient><linearGradient id="Gradiente_sem_nome_38-2" x1="92.7" y1="264.75" x2="424.01" y2="516.2" xlink:href="#Gradiente_sem_nome_38"/></defs><path class="cls-1" d="M252.4,246.6c33.8,0,63.2-12.1,87.1-36.1s36.2-53.3,36.2-87.2-12.2-63.2-36.2-87.2S286.2,0,252.4,0s-63.3,12.2-87.2,36.1S129,89.4,129,123.3s12.2,63.2,36.2,87.2S218.5,246.6,252.4,246.6Z" transform="translate(-42)"/><path class="cls-2" d="M468.1,393.7a317.2,317.2,0,0,0-4.1-32.3,259.1,259.1,0,0,0-8-32.6,165.1,165.1,0,0,0-13.3-30.3,115.3,115.3,0,0,0-20.2-26.3,90,90,0,0,0-29-18.2,100.6,100.6,0,0,0-37-6.7c-5.2,0-10.2,2.2-20,8.5-6,3.9-13,8.5-20.9,13.5s-15.8,8.3-27,11.9a105.7,105.7,0,0,1-66.1,0c-11.2-3.6-20.3-7.6-27-11.9l-20.9-13.5c-9.7-6.3-14.8-8.5-20-8.5a101,101,0,0,0-37,6.7,89.5,89.5,0,0,0-28.9,18.2,112.5,112.5,0,0,0-20.2,26.3,159.1,159.1,0,0,0-13.4,30.3,243.2,243.2,0,0,0-7.9,32.6A292.6,292.6,0,0,0,43,393.7c-.7,9.8-1,20-1,30.2,0,26.8,8.5,48.4,25.2,64.4S105.7,512,132.3,512H378.8c26.7,0,48.6-8,65.1-23.7s25.3-37.6,25.3-64.4C469.2,413.6,468.8,403.5,468.1,393.7Z" transform="translate(-42)"/></svg>